<svg height="512pt" viewBox="0 -77 512 512" width="512pt" xmlns="http://www.w3.org/2000/svg"><path d="m146.628906 180.335938c-14.371094 4.605468-25.789062 22.621093-27.027344 38.6875 7.554688 9.285156 17.230469 16.742187 28.273438 21.703124-6.980469-17.109374-7.347656-37.460937 2.429688-52.070312-1.59375-2.570312-2.796876-5.367188-3.675782-8.320312zm0 0"/><path d="m161.230469 141.773438c2.558593-1.597657 5.347656-2.800782 8.300781-3.679688-4.609375-14.367188-22.613281-25.785156-38.691406-27.023438-9.324219 7.585938-16.808594 17.3125-21.765625 28.425782 5.699219-2.355469 11.707031-4.148438 17.808593-4.890625 13.261719-1.640625 25.148438.945312 34.347657 7.167969zm0 0"/><path d="m223.828125 207.207031c-10.171875 0-19.265625-2.671875-26.648437-7.648437-2.558594 1.605468-5.359376 2.800781-8.320313 3.679687 4.609375 14.371094 22.613281 25.789063 38.691406 27.023438 9.324219-7.585938 16.808594-17.3125 21.769531-28.421875-5.703124 2.355468-11.710937 4.144531-17.8125 4.890625-2.609374.324219-5.179687.476562-7.679687.476562zm0 0"/><path d="m186.898438 137.488281c3.019531.699219 5.828124 1.871094 8.480468 3.3125 6.9375-13.492187 2.132813-34.332031-8.472656-46.542969-2.535156-.253906-5.105469-.390624-7.707031-.390624-9.652344 0-18.847657 1.867187-27.367188 5.128906 17.015625 7.160156 31.644531 21.265625 35.066407 38.492187zm0 0"/><path d="m179.199219 247.464844c9.652343 0 18.851562-1.867188 27.367187-5.125-17.015625-7.160156-31.640625-21.265625-35.0625-38.496094-3.023437-.699219-5.828125-1.867188-8.484375-3.308594-6.9375 13.488282-2.132812 34.328125 8.476563 46.539063 2.53125.257812 5.101562.390625 7.703125.390625zm0 0"/><path d="m211.773438 161c14.367187-4.609375 25.777343-22.625 27.023437-38.691406-7.542969-9.285156-17.230469-16.742188-28.269531-21.699219 6.980468 17.109375 7.347656 37.460937-2.433594 52.070313 1.597656 2.566406 2.800781 5.367187 3.679688 8.320312zm0 0"/><path d="m146.023438 162.96875c.691406-2.984375 1.84375-5.769531 3.265624-8.40625-5.527343-2.824219-12.566406-3.957031-20.351562-3.019531-9.8125 1.1875-19.308594 5.460937-26.144531 11.417969-.257813 2.535156-.394531 5.101562-.394531 7.707031 0 9.648437 1.871093 18.847656 5.128906 27.363281 7.160156-17.011719 21.265625-31.640625 38.496094-35.0625zm0 0"/><path d="m350.824219 162.96875c.6875-2.984375 1.839843-5.769531 3.265625-8.40625-5.527344-2.824219-12.578125-3.957031-20.351563-3.019531-9.8125 1.1875-19.3125 5.460937-26.144531 11.417969-.257812 2.535156-.394531 5.101562-.394531 7.707031 0 9.648437 1.871093 18.847656 5.128906 27.363281 7.160156-17.011719 21.265625-31.640625 38.496094-35.0625zm0 0"/><path d="m196.265625 170.667969c0 9.425781-7.640625 17.066406-17.066406 17.066406s-17.066407-7.640625-17.066407-17.066406 7.640626-17.066407 17.066407-17.066407 17.066406 7.640626 17.066406 17.066407zm0 0"/><path d="m212.378906 178.363281c-.699218 2.988281-1.851562 5.777344-3.277344 8.40625 5.527344 2.832031 12.578126 3.96875 20.351563 3.011719 9.8125-1.1875 19.300781-5.460938 26.144531-11.417969.257813-2.535156.394532-5.101562.394532-7.707031 0-9.648438-1.859376-18.847656-5.128907-27.363281-7.152343 17.023437-21.257812 31.648437-38.484375 35.070312zm0 0"/><path d="m376.292969 203.84375c-3.019531-.699219-5.828125-1.867188-8.480469-3.308594-6.9375 13.488282-2.132812 34.328125 8.472656 46.539063 2.535156.257812 5.113282.390625 7.707032.390625 9.652343 0 18.847656-1.867188 27.367187-5.125-17.007813-7.160156-31.632813-21.265625-35.066406-38.496094zm0 0"/><path d="m366.027344 141.773438c2.5625-1.597657 5.351562-2.800782 8.304687-3.679688-4.609375-14.367188-22.613281-25.785156-38.691406-27.023438-9.324219 7.585938-16.808594 17.3125-21.765625 28.425782 5.699219-2.355469 11.707031-4.148438 17.808594-4.890625 13.257812-1.640625 25.144531.945312 34.34375 7.167969zm0 0"/><path d="m428.628906 207.207031c-10.171875 0-19.269531-2.671875-26.648437-7.648437-2.5625 1.605468-5.359375 2.800781-8.320313 3.679687 4.609375 14.371094 22.613282 25.789063 38.691406 27.023438 9.324219-7.585938 16.808594-17.3125 21.765626-28.421875-5.699219 2.355468-11.707032 4.144531-17.808594 4.890625-2.609375.324219-5.179688.476562-7.679688.476562zm0 0"/><path d="m351.429688 180.335938c-14.371094 4.605468-25.789063 22.621093-27.027344 38.6875 7.554687 9.285156 17.230468 16.742187 28.273437 21.703124-6.980469-17.109374-7.347656-37.460937 2.429688-52.070312-1.59375-2.570312-2.796875-5.367188-3.675781-8.320312zm0 0"/><path d="m460.808594 42.667969h-392.542969v-34.132813c0-4.710937-3.820313-8.535156-8.53125-8.535156h-51.199219c-4.710937 0-8.535156 3.824219-8.535156 8.535156 0 4.707032 3.824219 8.53125 8.535156 8.53125h42.664063v42.667969h-25.597657c-4.710937 0-8.535156 3.820313-8.535156 8.53125s3.824219 8.535156 8.535156 8.535156h25.597657v17.066407h-25.597657c-4.710937 0-8.535156 3.824218-8.535156 8.53125v68.269531c0 4.710937 3.824219 8.53125 8.535156 8.53125h25.597657v17.066406h-25.597657c-4.710937 0-8.535156 3.824219-8.535156 8.535156 0 4.710938 3.824219 8.53125 8.535156 8.53125h25.597657v17.066407h-25.597657c-4.710937 0-8.535156 3.824218-8.535156 8.535156v68.265625c0 4.710937 3.824219 8.535156 8.535156 8.535156h25.597657v34.132813c0 4.710937 3.824219 8.53125 8.535156 8.53125s8.53125-3.820313 8.53125-8.53125v-51.199219h42.667969v51.199219c0 4.710937 3.824218 8.53125 8.53125 8.53125h187.734375c4.710937 0 8.535156-3.820313 8.535156-8.53125v-51.199219h34.132813v51.199219c0 4.710937 3.824218 8.53125 8.53125 8.53125h68.269531c4.710937 0 8.53125-3.820313 8.53125-8.53125v-51.199219h25.609375c28.226562 0 51.191406-22.964844 51.191406-51.191407v-153.628906c0-28.21875-22.964844-51.179687-51.191406-51.179687zm-426.675782 119.464843v-51.199218h17.066407v51.199218zm0 136.535157v-51.203125h17.066407v51.203125zm70.902344-70.675781c-.3125-.296876-.511718-.691407-.773437-1.03125-11.828125-15.710938-18.9375-35.164063-18.9375-56.292969 0-4.089844.359375-8.089844.886719-12.230469 3.296874-25.121094 16.53125-47.113281 35.644531-61.925781.308593-.316407.691406-.511719 1.042969-.777344 15.691406-11.824219 35.164062-18.933594 56.292968-18.933594 4.085938 0 8.097656.347657 12.253906.894531 25.113282 3.292969 47.09375 16.53125 61.910157 35.644532.316406.296875.511719.691406.777343 1.03125 11.824219 15.710937 18.925782 35.167968 18.925782 56.296875 0 4.085937-.351563 8.089843-.886719 12.242187 0 3.140625-1.066406 6.65625-1.792969 9.695313-.769531 3.21875-1.714844 6.390625-2.832031 9.507812-2.195313 6.144531-5.027344 12.046875-8.449219 17.601563-7.355468 11.941406-17.355468 22.121094-29.117187 29.738281-11.742188 7.613281-25.144531 12.570313-39.03125 14.335937-3.90625.496094-7.832031.746094-11.757813.746094-4.085937 0-8.089844-.351562-12.246094-.898437-25.113281-3.292969-47.09375-16.519531-61.910156-35.644531zm193.632813 113.339843h-25.601563v-17.066406c0-4.710937-3.824218-8.53125-8.53125-8.53125-4.710937 0-8.535156 3.820313-8.535156 8.53125v17.066406h-17.066406v-17.066406c0-4.710937-3.824219-8.53125-8.535156-8.53125-4.707032 0-8.53125 3.820313-8.53125 8.53125v17.066406h-17.066407v-17.066406c0-4.710937-3.824219-8.53125-8.535156-8.53125s-8.53125 3.820313-8.53125 8.53125v17.066406h-17.066406v-17.066406c0-4.710937-3.824219-8.53125-8.535157-8.53125-4.710937 0-8.53125 3.820313-8.53125 8.53125v17.066406h-25.601562v-42.664062h170.667969zm119.464843 0h-17.066406v-17.066406c0-4.710937-3.824218-8.53125-8.53125-8.53125-4.710937 0-8.535156 3.820313-8.535156 8.53125v17.066406h-17.066406v-42.664062h51.199218zm58.835938-158.421875c0 5.53125-2.164062 11.847656-3.890625 17.050782-1.824219 5.546874-4.171875 10.914062-6.996094 16.019531-5.554687 10.023437-12.960937 19-21.71875 26.398437-16.773437 14.175782-38.398437 22.164063-60.371093 22.164063-4.089844 0-8.089844-.351563-12.246094-.898438-25.121094-3.292969-47.105469-16.527343-61.910156-35.640625-.316407-.300781-.511719-.691406-.777344-1.035156-11.824219-15.710938-18.933594-35.164062-18.933594-56.292969 0-4.089843.359375-8.089843.886719-12.230469 3.292969-25.121093 16.53125-47.109374 35.644531-61.925781.308594-.316406.691406-.511719 1.039062-.777343 15.703126-11.824219 35.167969-18.933594 56.296876-18.933594 4.085937 0 8.097656.351562 12.253906.894531 25.113281 3.296875 47.09375 16.53125 61.910156 35.644531.3125.300782.511719.691406.773438 1.03125 11.828124 15.710938 18.929687 35.167969 18.929687 56.296875.007813 4.078125-.34375 8.082031-.890625 12.234375zm0 0"/><path d="m391.695312 137.488281c3.023438.699219 5.828126 1.871094 8.484376 3.3125 6.9375-13.492187 2.132812-34.332031-8.472657-46.542969-2.535156-.253906-5.105469-.390624-7.707031-.390624-9.652344 0-18.851562 1.867187-27.367188 5.128906 17.015626 7.160156 31.640626 21.265625 35.0625 38.492187zm0 0"/><path d="m417.175781 178.363281c-.699219 2.988281-1.851562 5.777344-3.273437 8.40625 5.527344 2.832031 12.578125 3.96875 20.351562 3.011719 9.8125-1.1875 19.300782-5.460938 26.144532-11.417969.257812-2.535156.394531-5.101562.394531-7.707031 0-9.648438-1.863281-18.847656-5.128907-27.363281-7.152343 17.023437-21.257812 31.648437-38.488281 35.070312zm0 0"/><path d="m401.066406 170.667969c0 9.425781-7.640625 17.066406-17.066406 17.066406s-17.066406-7.640625-17.066406-17.066406 7.640625-17.066407 17.066406-17.066407 17.066406 7.640626 17.066406 17.066407zm0 0"/><path d="m416.570312 161c14.371094-4.609375 25.78125-22.625 27.027344-38.691406-7.542968-9.285156-17.230468-16.742188-28.273437-21.699219 6.980469 17.109375 7.347656 37.460937-2.429688 52.070313 1.59375 2.566406 2.796875 5.367187 3.675781 8.320312zm0 0"/></svg>