<?xml version="1.0" encoding="iso-8859-1"?>
<!-- Generator: Adobe Illustrator 19.0.0, SVG Export Plug-In . SVG Version: 6.00 Build 0)  -->
<svg version="1.1" id="Layer_1" xmlns="http://www.w3.org/2000/svg" xmlns:xlink="http://www.w3.org/1999/xlink" x="0px" y="0px"
	 viewBox="0 0 512 512" style="enable-background:new 0 0 512 512;" xml:space="preserve">
<path style="fill:#A8A5A4;" d="M313.835,225.295c-0.853,13.495-12.07,23.995-25.591,23.97c-4.129,0-8.198-0.99-11.857-2.9
	c-2.303-1.203-4.402-2.755-6.227-4.606c-11.268-11.038-26.452-17.171-42.225-17.06c-3.975,0.026-7.942,0.392-11.857,1.109
	c-11.507,2.329-22.068,7.993-30.368,16.293L76.866,349.922c-23.484,23.151-23.748,60.957-0.597,84.441
	c8.496,8.615,19.415,14.45,31.306,16.728c3.941,0.751,7.933,1.152,11.942,1.194c15.772,0.111,30.956-6.022,42.225-17.06
	l58.432-58.517l5.971-5.971c18.366,7.455,38.011,11.251,57.835,11.175h3.412l-89.567,89.055
	c-44.28,42.31-114.475,40.706-156.785-3.574c-40.954-42.864-40.954-110.347,0-153.211l108.59-108.59
	c6.184-6.219,13.085-11.686,20.558-16.293c13.981-8.522,29.694-13.827,45.978-15.525c3.932-0.486,7.89-0.717,11.857-0.682
	c21.121-0.119,41.841,5.801,59.711,17.06c6.747,4.282,12.983,9.324,18.596,15.013C311.66,210.453,314.406,217.814,313.835,225.295z"
	/>
<path style="fill:#BDBDBD;" d="M290.121,225.295c-0.29,6.227-2.943,12.113-7.421,16.463c-1.808,1.825-3.881,3.378-6.142,4.606
	c-2.303-1.203-4.402-2.755-6.227-4.606c-11.268-11.038-26.452-17.171-42.225-17.06c-3.975,0.026-7.942,0.392-11.857,1.109
	c-3.941-0.708-7.933-1.083-11.942-1.109c-15.755-0.154-30.931,5.98-42.139,17.06L53.408,349.922
	c-23.322,23.313-23.322,61.127-0.009,84.441c11.303,11.303,26.674,17.606,42.66,17.495c3.975-0.026,7.942-0.392,11.857-1.109
	c3.813,0.844,7.694,1.356,11.601,1.535c15.772,0.111,30.956-6.022,42.225-17.06l58.432-58.517
	c13.043,3.497,26.503,5.255,40.007,5.203h3.412l-89.567,89.055c-17.845,17.913-41.303,29.148-66.45,31.818
	c-25.181-2.627-48.682-13.87-66.536-31.818c-43.282-43.299-43.282-113.486,0-156.785l108.59-108.59
	c6.184-6.219,13.085-11.686,20.558-16.293c13.981-8.522,29.694-13.827,45.978-15.525c17.069,1.86,33.455,7.703,47.854,17.06
	c6.747,4.282,12.983,9.324,18.596,15.013C287.767,210.973,290.496,218.045,290.121,225.295z"/>
<path style="fill:#A8A5A4;" d="M470.961,197.828l-108.59,108.589c-14.117,14.16-31.801,24.243-51.181,29.173h-0.597l-4.692,0.938
	l-2.815,0.512l-5.289,0.768h-2.815l-5.459,0.512h-5.374h-6.142c-2.286-0.077-4.564-0.273-6.824-0.597l-4.436-0.512
	c-3.156-0.512-6.312-1.194-9.554-1.962c-1.535,0-3.071-0.768-4.606-1.28c-1.732-0.256-3.438-0.631-5.118-1.109
	c-1.774-0.554-3.506-1.211-5.203-1.962c-1.877-0.682-3.497-1.45-5.033-2.133c-11.806-5.502-22.545-13.034-31.732-22.264
	c-9.98-9.989-9.98-26.179,0-36.168c1.57-1.604,3.344-2.977,5.289-4.095c3.89-2.243,8.308-3.421,12.795-3.412
	c6.782,0.009,13.29,2.704,18.084,7.507c8.053,8.078,18.272,13.648,29.429,16.037c4.205,0.93,8.496,1.382,12.795,1.365
	c15.772,0.111,30.956-6.022,42.225-17.06l28.576-28.491l0,0l80.44-80.44c23.27-23.364,23.202-61.17-0.162-84.441
	c-11.277-11.234-26.572-17.495-42.489-17.41c-4.274-0.017-8.539,0.435-12.71,1.365c-11.158,2.252-21.411,7.711-29.514,15.696
	l-64.488,64.488c-6.27-2.559-12.71-4.675-19.278-6.312c-12.556-3.318-25.488-4.982-38.471-4.948h-3.327l89.482-89.141
	c17.632-17.7,40.766-28.866,65.597-31.647c4.222-0.486,8.462-0.708,12.71-0.682c61.247,0.068,110.833,49.774,110.765,111.021
	C503.214,149.01,491.613,177.083,470.961,197.828z"/>
<path style="fill:#BDBDBD;" d="M477.785,119.606c0.009,29.395-11.644,57.587-32.415,78.393l-108.59,108.419
	c-14.092,14.203-31.784,24.285-51.181,29.173h-0.512l-4.777,0.938l-2.73,0.512l-5.374,0.768h-1.024l-4.436-0.512
	c-3.156-0.512-6.312-1.194-9.554-1.962c-1.535,0-3.071-0.768-4.606-1.28c-1.732-0.29-3.438-0.682-5.118-1.194
	c-1.774-0.554-3.506-1.211-5.203-1.962c-1.877-0.682-3.497-1.45-5.033-2.133c-11.806-5.502-22.545-13.034-31.732-22.264
	c-9.98-9.989-9.98-26.179,0-36.168c1.57-1.604,3.344-2.977,5.289-4.095c1.97,1.117,3.779,2.491,5.374,4.095
	c11.209,11.081,26.384,17.214,42.139,17.06c4.299,0.017,8.59-0.435,12.795-1.365c4.205,0.93,8.496,1.382,12.795,1.365
	c15.772,0.111,30.956-6.022,42.225-17.06l28.576-28.491l0,0l80.44-80.099c23.27-23.364,23.202-61.17-0.162-84.441
	c-11.277-11.234-26.572-17.495-42.489-17.41c-4.274-0.017-8.539,0.435-12.71,1.365c-4.231-0.93-8.547-1.39-12.881-1.365
	c-15.926-0.23-31.28,5.911-42.651,17.06l-58.176,58.176c-12.556-3.318-25.488-4.982-38.471-4.948h-3.327l89.908-89.141
	c17.632-17.7,40.766-28.866,65.597-31.647C435.791,15.717,478.05,63.23,477.785,119.606z"/>
<path d="M119.517,511.996C53.561,512.047,0.051,458.622,0,392.667c-0.026-31.707,12.556-62.126,34.982-84.543l108.59-108.59
	c22.366-22.443,52.768-35.034,84.449-34.974c22.827,0,45.176,6.543,64.403,18.852c7.259,4.615,13.981,10.023,20.046,16.122
	c6.918,6.935,10.518,16.497,9.895,26.273c-0.572,8.206-4.086,15.934-9.895,21.752c-13.469,12.676-34.471,12.676-47.94,0
	c-19.986-19.961-52.35-19.961-72.336,0L83.263,356.319c-19.995,19.995-19.995,52.427,0,72.421s52.427,19.995,72.421,0l64.403-64.488
	c2.431-2.448,6.108-3.19,9.298-1.877c17.333,7.046,35.878,10.646,54.593,10.577h3.241c3.489-0.068,6.662,1.996,8.018,5.203
	c1.373,3.199,0.665,6.918-1.791,9.383l-89.567,89.482C181.548,499.473,151.181,512.064,119.517,511.996z M228.021,181.621
	c-18.818-0.085-37.294,5.024-53.399,14.757c-6.909,4.24-13.29,9.281-19.022,15.013L47.01,320.151
	c-40.041,40.041-40.041,104.973,0,145.013s104.973,40.041,145.013,0l75.748-75.748c-13.435-1.305-26.648-4.316-39.324-8.957
	l-60.479,60.564c-26.708,26.708-70.024,26.708-96.733,0c-26.708-26.708-26.708-70.024,0-96.733l0,0l108.59-108.504
	c26.648-26.631,69.828-26.631,96.477,0c6.773,6.406,17.367,6.406,24.14,0c6.662-6.662,6.671-17.461,0.017-24.123
	c-0.009-0.009-0.009-0.009-0.017-0.017c-5.161-5.229-10.876-9.861-17.06-13.819C266.868,187.234,247.649,181.604,228.021,181.621z"
	/>
<path d="M284.491,347.363h-0.512h-5.971c-4.257-0.171-8.496-0.572-12.71-1.194c-3.497-0.597-6.909-1.28-10.322-2.133l-5.033-1.365
	c-1.791-0.512-3.668-1.109-5.459-1.791s-3.668-1.28-5.459-2.047c-1.791-0.768-3.583-1.45-5.374-2.303
	c-12.693-5.886-24.251-13.973-34.121-23.885c-6.918-6.935-10.518-16.497-9.895-26.273c0.572-8.206,4.086-15.934,9.895-21.752
	c13.469-12.676,34.471-12.676,47.94,0c19.986,19.961,52.35,19.961,72.336,0l27.979-27.808l0.682-0.768l80.013-79.928
	c19.995-19.995,19.995-52.427,0-72.421s-52.427-19.995-72.421,0l-64.232,64.062c-2.431,2.448-6.108,3.19-9.298,1.877
	c-17.299-7.072-35.818-10.697-54.508-10.663h-3.156c-4.709,0.119-8.624-3.591-8.752-8.308c-0.06-2.354,0.853-4.623,2.525-6.278
	l89.482-89.397c46.643-46.643,122.255-46.643,168.898,0s46.643,122.255,0,168.898l-108.59,108.59
	c-15.278,15.278-34.411,26.128-55.361,31.391h-0.938l-4.948,1.024l-2.73,0.512l-5.886,0.853h-2.9c-2.218,0-4.18,0.426-6.056,0.512
	L284.491,347.363z M223.671,271.273c-9.426-0.051-17.103,7.541-17.163,16.958c-0.026,4.581,1.791,8.982,5.05,12.215
	c8.47,8.496,18.374,15.431,29.259,20.473l4.606,1.962c1.621,0.682,2.9,1.194,4.692,1.706c1.791,0.512,3.156,1.109,4.606,1.535
	l4.35,1.194c2.986,0.768,5.971,1.365,8.53,1.791c3.395,0.52,6.807,0.862,10.236,1.024h5.801h4.948l4.862-0.426h2.9l4.862-0.682
	l2.559-0.512l4.436-0.853c18.118-4.478,34.667-13.836,47.854-27.041l108.931-108.76c40.041-40.041,40.041-104.973,0-145.014
	s-104.973-40.041-145.013,0l-75.663,75.663c13.384,1.356,26.537,4.393,39.154,9.042l60.564-60.564
	c26.708-26.708,70.024-26.708,96.733,0s26.708,70.024,0,96.733l-79.331,79.246l-0.682,0.768l-28.576,28.491
	c-26.648,26.631-69.828,26.631-96.477,0C232.499,273.048,228.175,271.273,223.671,271.273z"/>
<g>
</g>
<g>
</g>
<g>
</g>
<g>
</g>
<g>
</g>
<g>
</g>
<g>
</g>
<g>
</g>
<g>
</g>
<g>
</g>
<g>
</g>
<g>
</g>
<g>
</g>
<g>
</g>
<g>
</g>
</svg>
