<?xml version="1.0" encoding="iso-8859-1"?>
<!-- Generator: Adobe Illustrator 19.0.0, SVG Export Plug-In . SVG Version: 6.00 Build 0)  -->
<svg version="1.1" id="Layer_1" xmlns="http://www.w3.org/2000/svg" xmlns:xlink="http://www.w3.org/1999/xlink" x="0px" y="0px"
	 viewBox="0 0 511.999 511.999" style="enable-background:new 0 0 511.999 511.999;" xml:space="preserve">
<g>
	<path style="fill:#4ACFD9;" d="M253.378,117.865l-89.844-89.843C145.462,9.952,121.4,0,95.779,0S46.095,9.952,28.022,28.023
		c-37.36,37.361-37.36,98.151,0,135.513l89.843,89.842c18.072,18.071,42.136,28.024,67.757,28.024s49.685-9.953,67.756-28.024
		c18.071-18.072,28.024-42.135,28.024-67.756C281.403,160.001,271.45,135.938,253.378,117.865z M129.843,61.715l89.844,89.842
		c18.783,18.784,18.783,49.347,0.001,68.131c-18.786,18.782-49.351,18.782-68.132,0l-44.922-44.921v0.001l-44.921-44.922
		c-18.783-18.784-18.783-49.347,0-68.131C80.497,42.931,111.06,42.931,129.843,61.715z"/>
	<path style="fill:#4ACFD9;" d="M483.974,348.462l-89.843-89.844c-18.072-18.071-42.135-28.023-67.756-28.023
		c-25.621,0-49.685,9.952-67.756,28.023c-18.072,18.072-28.025,42.135-28.025,67.756c0,25.622,9.952,49.686,28.025,67.757
		l89.842,89.843c18.072,18.071,42.135,28.025,67.756,28.025s49.685-9.953,67.756-28.025c18.071-18.072,28.025-42.135,28.025-67.756
		C511.998,390.597,502.046,366.535,483.974,348.462z M382.153,450.283l-44.922-44.921L292.31,360.44
		c-18.784-18.783-18.784-49.347,0-68.131c18.783-18.783,49.346-18.783,68.13,0l89.843,89.843c18.783,18.784,18.783,49.347,0,68.131
		C431.499,469.068,400.937,469.068,382.153,450.283z"/>
</g>
<path style="fill:#0295AA;" d="M361.189,327.5L169.524,135.834c-9.29-9.289-24.402-9.289-33.69,0
	c-4.5,4.499-6.979,10.481-6.979,16.846c0,6.364,2.479,12.347,6.978,16.846L327.498,361.19c4.5,4.499,10.482,6.978,16.846,6.978
	c6.363,0,12.346-2.479,16.845-6.978c4.5-4.499,6.979-10.481,6.979-16.846C368.167,337.981,365.688,331.999,361.189,327.5z"/>
<g>
	<path style="fill:#FD6A33;" d="M341.421,174.282c-2.032,0-4.065-0.775-5.616-2.326c-3.101-3.101-3.101-8.13,0-11.23l44.47-44.47
		c3.102-3.101,8.13-3.101,11.231,0s3.101,8.13,0,11.23l-44.47,44.47C345.486,173.506,343.453,174.282,341.421,174.282z"/>
	<path style="fill:#FD6A33;" d="M307.539,160.247c-4.387,0-7.941-3.555-7.941-7.941v-62.89c0-4.386,3.554-7.941,7.941-7.941
		c4.387,0,7.941,3.555,7.941,7.941v62.89C315.48,156.692,311.926,160.247,307.539,160.247z"/>
	<path style="fill:#FD6A33;" d="M418.346,208.164h-62.889c-4.387,0-7.941-3.555-7.941-7.941c0-4.386,3.554-7.941,7.941-7.941h62.889
		c4.387,0,7.941,3.555,7.941,7.941C426.287,204.608,422.731,208.164,418.346,208.164z"/>
</g>
<g>
</g>
<g>
</g>
<g>
</g>
<g>
</g>
<g>
</g>
<g>
</g>
<g>
</g>
<g>
</g>
<g>
</g>
<g>
</g>
<g>
</g>
<g>
</g>
<g>
</g>
<g>
</g>
<g>
</g>
</svg>
