<svg height="512pt" viewBox="0 0 512 512" width="512pt" xmlns="http://www.w3.org/2000/svg"><path d="m74.976562 98.96875c0-11.042969 8.949219-19.992188 19.992188-19.992188s19.996094 8.949219 19.996094 19.992188-8.953125 19.992188-19.996094 19.992188-19.992188-8.949219-19.992188-19.992188zm89.972657 19.992188c11.042969 0 19.992187-8.949219 19.992187-19.992188s-8.949218-19.992188-19.992187-19.992188-19.996094 8.949219-19.996094 19.992188 8.953125 19.992188 19.996094 19.992188zm-89.972657 138.957031c0 11.042969 8.949219 19.996093 19.992188 19.996093s19.996094-8.953124 19.996094-19.996093-8.953125-19.992188-19.996094-19.992188-19.992188 8.949219-19.992188 19.992188zm69.976563 0c0 11.042969 8.953125 19.996093 19.996094 19.996093s19.992187-8.953124 19.992187-19.996093-8.949218-19.992188-19.992187-19.992188-19.996094 8.949219-19.996094 19.992188zm-69.976563 156.953125c0 11.039062 8.949219 19.992187 19.992188 19.992187s19.996094-8.953125 19.996094-19.992187c0-11.042969-8.953125-19.996094-19.996094-19.996094s-19.992188 8.953125-19.992188 19.996094zm69.976563 0c0 11.039062 8.953125 19.992187 19.996094 19.992187s19.992187-8.953125 19.992187-19.992187c0-11.042969-8.949218-19.996094-19.992187-19.996094s-19.996094 8.953125-19.996094 19.996094zm195.835937-101.902344c47.441407-36.96875 96.140626-37.507812 105.070313-39.054688v-35.988281h-37.988281c-.246094 0-.503906-.003906-.753906-.003906-31.167969 0-80.953126 8.519531-113.507813 28.410156l-26.300781-26.300781-28.273438 28.277344 25.792969 25.792968c-21.191406 31.953126-31.054687 80.855469-30.898437 110.769532v35.992187h36.988281c2.296875-10.910156 4.609375-56.148437 41.140625-100.078125l171.667968 171.214844 28.238282-28.3125zm41.800782 155.0625 28.433594 28.355469c-10.640626 9.597656-24.71875 15.453125-40.140626 15.453125h-310.902343c-33.074219 0-59.980469-26.910156-59.980469-59.980469v-75.976563c0-15.351562 5.804688-29.367187 15.320312-39.988281-9.515624-10.621093-15.320312-24.636719-15.320312-39.988281v-77.976562c0-15.347657 5.804688-29.363282 15.320312-39.984376-9.515624-10.621093-15.320312-24.636718-15.320312-39.988281v-77.976562c0-33.074219 26.90625-59.980469 59.980469-59.980469h310.902343c33.074219 0 59.980469 26.90625 59.980469 59.980469v77.976562c0 15.359375-5.808593 29.382813-15.335937 40.003907 5.164062 5.769531 9.234375 12.535156 11.875 19.976562h-367.421875c-11.023438 0-19.992188 8.96875-19.992188 19.992188v77.976562c0 11.023438 8.96875 19.996094 19.992188 19.996094h150.054687c-4.773437 13.363281-8.359375 26.980468-10.925781 39.984375h-139.128906c-11.023438 0-19.992188 8.96875-19.992188 19.996093v75.976563c0 11.023437 8.96875 19.992187 19.992188 19.992187h310.902343c4.375 0 8.410157-1.429687 11.707032-3.820312zm-342.601563-330.074219c0 11.023438 8.96875 19.992188 19.992188 19.992188h310.902343c11.023438 0 19.996094-8.96875 19.996094-19.992188v-77.976562c0-11.023438-8.972656-19.992188-19.996094-19.992188h-310.902343c-11.023438 0-19.992188 8.96875-19.992188 19.992188zm0 0"/></svg>