<?xml version="1.0" encoding="iso-8859-1"?>
<!-- Generator: Adobe Illustrator 18.1.1, SVG Export Plug-In . SVG Version: 6.00 Build 0)  -->
<svg version="1.1" id="Capa_1" xmlns="http://www.w3.org/2000/svg" xmlns:xlink="http://www.w3.org/1999/xlink" x="0px" y="0px"
	 viewBox="0 0 286.374 286.374" style="enable-background:new 0 0 286.374 286.374;" xml:space="preserve">
<g id="Anonym__x2F__Guy_Fawkes">
	<path style="fill-rule:evenodd;clip-rule:evenodd;" d="M169.126,34.594c2.693,1.958,8.783,1.766,12.279-2.43
		c1.975-2.377,19.07-20.306,43.068-20.306c30.816,0,42.283,10.312,42.283,10.312C255.795,2.42,232.12,0,225.243,0
		c-33.473,0-52.577,15.962-57.55,22.735C162.712,29.509,166.67,32.802,169.126,34.594z M264.001,89.492
		c-4.295,0-4.475,7.024-4.475,8.949c-0.002,12.588-7.112,24.854-13.424,31.322c-18.16,18.608-47.9,2.264-47.9,2.264
		c-5.017-2.028,0.445,3.002,0.445,3.002c2.857,2.962,11.038,12.073,27.092,14.118c-0.743,0.786-19.97,20.887-19.97,20.887h-17.898
		l-17.898-26.847c-4.755,6.292-8.949,8.949-17.899,8.949c-4.91,0-10.487-0.84-14.403-5.173c-3.679-4.069-3.495-9.426-3.495-12.725
		c-0.018-13.425,0-47.578,0-53.695V65.16c0-7.83-8.791-15.049-8.791-15.049c-10.435-7.158-17.82,8.967-17.82,8.967l-0.114,0.087
		c-8.582-3.119-17.655-5.025-27.198-5.025c-11.685,0-25.362,1.285-35.57,5.803c0-2.551,0-6.249,0-6.249
		c0-64.134,69.182-22.067,78.926-18.588c9.09,3.233,7.254-7.215,5.672-8.958C107.469,2.097,70.414,0,70.414,0
		C19.743,0,17.899,49.622,17.899,71.593v46.538c0,56.75,72.389,154.427,117.371,161.863c-0.218,0.104,4.78,1.285,6.79,2.744
		c0.078,0.053,0.209,0,0.28,0.044c2.587,2.158,5.846,3.593,9.507,3.593c3.558,0,6.687-1.381,9.221-3.409
		c0,0,3.163-1.827,7.813-3.321c5.313-1.408,14.412-6.93,20.066-11.466c22.942-18.401,46.092-46.874,62.182-87.928
		c0,0,2.159-9.657-0.612-10.216c-2.465-0.499-4.099,0.035-10.758,12.008c-25.415,45.703-60.697,76.645-78.734,77.485V223.73
		c11.414-1.757,31.742-10.794,45.472-23.265c8.949-8.137-7.114-6.284-9.675-5.243c-10.968,4.422-13.188,10.609-44.747,10.609
		c-30.098,0-48.075-12.681-53.695-17.898c16.64,0,35.797,0,35.797,0l17.898-17.899l17.899,17.899c0,0,21.053,0,35.797,0
		l32.554-38.646c27.346-2.421,30.151-34.099,30.151-37.422c0-6.922,0-6.789,0-13.424C268.476,96.33,268.404,89.492,264.001,89.492z
		 M98.795,207.538c24.03,15.121,36.463,15.043,44.331,16.191v35.797C100.727,248.696,98.327,218.013,98.795,207.538z
		 M113.018,113.656c-6.677,29.531-40.07,29.531-40.07,29.531c-19.812,0-28.263-10.156-28.263-37.004V66.371
		c10.208,4.527,23.885,8.376,35.57,8.376c10.339,0,20.154-2.132,29.357-5.76c0.026,0,0.051,0.009,0.051,0.009
		c3.383,0,5.27,2.648,5.27,2.648S120.456,80.726,113.018,113.656z M176.774,64.444c11.902,6.388,25.117,10.304,39.248,10.304
		c14.149,0,27.354-3.915,39.267-10.304c-11.913-6.389-25.118-10.304-39.267-10.304C201.89,54.14,188.676,58.055,176.774,64.444z"/>
</g>
<g>
</g>
<g>
</g>
<g>
</g>
<g>
</g>
<g>
</g>
<g>
</g>
<g>
</g>
<g>
</g>
<g>
</g>
<g>
</g>
<g>
</g>
<g>
</g>
<g>
</g>
<g>
</g>
<g>
</g>
</svg>
